<?xml version="1.0" encoding="UTF-8"?><svg id="Layer_1" xmlns="http://www.w3.org/2000/svg" viewBox="0 0 1852.73 753.97"><defs><style>.cls-1{fill:#fff;stroke-width:0px;}</style></defs><path class="cls-1" d="M913.52,306.82c67.33,0,109.15-33.12,109.15-86.44,0-68.78-55.88-80.06-100.78-89.12-46.92-9.49-58.73-14.1-58.73-30.75,0-20.85,23.16-25.23,48.55-25.23,31.68,0,45.28,10.67,48.51,38.06l1.1,9.31h61.36l-1.4-11.79c-4.75-39.97-27.45-87.61-108.6-87.61-61.96,0-109.27,30.34-109.27,79.18,0,64.31,54.04,75.44,101.66,85.25,49.81,10.48,56.89,16.8,56.89,34.63,0,25.25-25.81,30.55-47.46,30.55-38.84,0-57.11-13.85-61.07-46.32l-1.13-9.26h-60.76l.78,11.27c4.31,62.45,48.49,98.28,121.22,98.28Z"/><path class="cls-1" d="M1487.84,21.65c-29.85,0-57.76,13.3-76.38,35.56-14.36-22.82-38.38-35.56-68.09-35.56-31.27,0-67.81,13.58-82.2,43.76-15.43-28.39-54.06-43.76-100.65-43.76-67.03,0-109.78,37.8-111.54,97.04l-.14,4.17h59.52l.14-3.44c1.23-31.92,16.94-45.55,52.5-45.55,30.08,0,53.48,5.88,53.48,33.88,0,15.79-10.14,19.43-50.34,25.51l-1.34.2c-53.11,8.23-119.21,18.48-119.21,92.34,0,50.09,36.93,81.19,96.37,81.19,30.35,0,56.81-9.69,77.67-28.19v23.29h61.03v-168.38c0-32.84,28.75-57.37,54.46-57.37,20.61,0,32.9,14.67,32.9,39.25v186.49h61.03v-168.38c0-31.64,23.1-57.37,51.52-57.37,17.83,0,35.84,12.12,35.84,39.25v186.49h61.03V113.62c0-55.86-34.38-91.97-87.58-91.97ZM1214.94,197.87c0,22.17-17.97,57.4-66.19,57.4-36.76,0-41.72-15.4-41.72-30.46,0-26.54,19.12-32.84,62.72-40.93,11.28-2.04,29.48-5.96,45.19-12.07v26.07Z"/><path class="cls-1" d="M1727.13,22.29c-73.53,0-128.97,61.06-128.97,142.02s54.03,142.03,131.39,142.03c62.05,0,104.93-33.69,117.62-92.43l2.76-12.77h-59.43l-2.03,7.92c-7.39,28.75-27.21,43.32-58.92,43.32-37.95,0-63.22-25.31-69.13-68.35h192.3v-10.54c0-93.27-48.12-151.21-125.59-151.21ZM1662.34,133.46c5.39-23.88,20.81-59.16,64.79-59.16s57.92,33.24,61.45,59.16h-126.24Z"/><path class="cls-1" d="M941.61,393.7c-27.95,0-51.27,8.36-70.67,25.45v-19.64h-60.24v351.24h60.24v-95.23c18.58,15.25,40.75,22.24,69.22,22.24,72.48,0,119.31-55.75,119.31-142.03s-46.26-142.03-117.86-142.03ZM998.26,536.21c0,81.27-46.69,87.59-61,87.59-31.35,0-68.73-15.19-68.73-87.59,0-81.72,52.97-88.07,69.21-88.07,56.16,0,60.52,67.41,60.52,88.07Z"/><path class="cls-1" d="M1195.68,393.7c-66.42,0-108.73,36.47-110.51,95.15l-.33,10.9h58.93l.39-10.18c1.22-31.61,16.75-45.12,52-45.12,30.25,0,52.95,5.82,52.95,33.55,0,15.64-10.01,19.25-49.83,25.24l-1.33.22c-52.61,8.15-118.11,18.3-118.11,91.46,0,49.61,36.58,80.42,95.45,80.42,27.12,0,51.11-7.79,70.72-22.8v22.8h60.18v-191.51c0-41.1-25.19-90.13-110.5-90.13ZM1249.6,567.27c0,21.96-17.8,56.82-65.59,56.82-36.41,0-41.32-15.22-41.32-30.14,0-26.29,18.94-32.53,62.15-40.54,11.18-2.02,29.17-5.91,44.76-11.98v25.85Z"/><path class="cls-1" d="M1515.17,416.29c-17.82-14.95-39.88-22.27-66.8-22.27-69.11,0-117.37,55.02-117.37,133.81s49.26,134.29,119.79,134.29c29.76,0,49.4-9.76,64.38-23.09v9.16c0,36.67-19.38,53.75-61,53.75-16.47,0-38.22-1-50.61-13.51-3.76-3.79-6.59-8.64-7.53-13.89-1.62-9.07-.98-14.23-1.34-14.23h-57.08c.18,0,.16,6.83,1.48,18.87.79,7.21,3.15,14.2,6.11,20.82,17.05,38.17,58.55,51.54,97.39,53.64,4.18.23,8.36.33,12.55.33,76.44,0,120.27-39.08,120.27-107.22v-246.92h-60.24v16.46ZM1518.08,525.9c0,56.13-20.76,82.27-65.35,82.27-18.19,0-60.51-7.78-60.51-79.85s41.98-80.34,60.03-80.34c44.3,0,65.84,25.49,65.84,77.92Z"/><path class="cls-1" d="M1727.15,393.54c-73.53,0-128.97,61.06-128.97,142.02s54.03,142.03,131.39,142.03c62.05,0,104.93-33.69,117.62-92.43l2.76-12.77h-59.43l-2.03,7.92c-7.39,28.75-27.21,43.32-58.92,43.32-37.95,0-63.22-25.31-69.13-68.35h192.3v-10.54c0-93.27-48.12-151.21-125.59-151.21ZM1662.36,504.72c5.39-23.88,20.81-59.16,64.79-59.16s57.92,33.24,61.45,59.16h-126.24Z"/><path class="cls-1" d="M358.65,0l-14.76.37C152.95,8.15-.01,165.84-.01,358.65s152.96,350.5,343.9,358.28l14.76.37h358.65V0h-358.65ZM29.51,358.65C29.51,182.12,169.23,37.65,343.89,29.89v657.51c-174.66-7.75-314.38-152.23-314.38-328.76ZM373.41,687.78V29.52h84.91v658.26h-84.91ZM487.84,687.78V29.52h85.5v658.26h-85.5ZM687.78,687.78h-84.92V29.52h84.92v658.26Z"/></svg>