<?xml version="1.0" encoding="UTF-8"?><svg id="Layer_1" xmlns="http://www.w3.org/2000/svg" viewBox="0 0 1831.92 753.97"><defs><style>.cls-1{fill:#28357c;}.cls-1,.cls-2,.cls-3,.cls-4{stroke-width:0px;}.cls-2{fill:#ffb93e;}.cls-3{fill:#000;}.cls-4{fill:#385a4e;}</style></defs><rect class="cls-1" x="359.56" y="22.28" width="100.38" height="675.68"/><rect class="cls-4" x="475.1" y="22.28" width="100.38" height="675.68"/><rect class="cls-2" x="590.64" y="22.28" width="100.38" height="675.68"/><path class="cls-3" d="M789.54,208.54l-.78-11.27h60.76l1.13,9.26c3.97,32.47,22.23,46.32,61.07,46.32,21.65,0,47.46-5.3,47.46-30.55,0-17.83-7.08-24.15-56.89-34.63-47.63-9.81-101.66-20.94-101.66-85.24,0-48.84,47.31-79.18,109.27-79.18,81.15,0,103.85,47.64,108.6,87.61l1.4,11.79h-61.36l-1.1-9.31c-3.23-27.39-16.83-38.06-48.51-38.06-25.38,0-48.55,4.38-48.55,25.23,0,16.65,11.81,21.26,58.73,30.75,44.9,9.06,100.78,20.34,100.78,89.12,0,53.32-41.83,86.44-109.15,86.44-72.73,0-116.91-35.82-121.22-98.28ZM1563.01,113.62v188.45h-61.03V115.58c0-27.13-18-39.25-35.84-39.25-28.42,0-51.52,25.73-51.52,57.37v168.38h-61.03V115.58c0-24.58-12.29-39.25-32.9-39.25-25.7,0-54.46,24.53-54.46,57.37v168.38h-61.03v-23.29c-20.86,18.51-47.32,28.19-77.67,28.19-59.44,0-96.37-31.11-96.37-81.19,0-73.86,66.1-84.11,119.21-92.34l1.34-.2c40.2-6.08,50.34-9.72,50.34-25.51,0-28-23.39-33.88-53.48-33.88-35.56,0-51.26,13.63-52.5,45.55l-.14,3.44h-59.52l.14-4.17c1.76-59.24,44.52-97.04,111.54-97.04,46.59,0,85.22,15.37,100.65,43.76,14.39-30.18,50.93-43.76,82.2-43.76s53.73,12.74,68.09,35.56c18.62-22.26,46.53-35.56,76.38-35.56,53.2,0,87.58,36.12,87.58,91.97ZM1202.54,171.8c-15.71,6.1-33.9,10.02-45.19,12.07-43.59,8.09-62.72,14.39-62.72,40.93,0,15.06,4.96,30.46,41.72,30.46,48.21,0,66.19-35.22,66.19-57.4v-26.07ZM1834.68,173.49v10.54h-192.3c5.9,43.03,31.18,68.35,69.13,68.35,31.7,0,51.52-14.58,58.92-43.32l2.03-7.92h59.43l-2.76,12.77c-12.69,58.74-55.56,92.43-117.62,92.43-77.36,0-131.39-58.4-131.39-142.03s55.44-142.02,128.97-142.02c77.47,0,125.59,57.94,125.59,151.21ZM1770.54,133.46c-3.53-25.91-16.78-59.16-61.45-59.16s-59.4,35.28-64.79,59.16h126.24ZM1056.72,535.72c0,86.28-46.83,142.03-119.31,142.03-28.47,0-50.64-6.99-69.22-22.24v95.23h-60.24v-351.24h60.24v19.64c19.4-17.08,42.72-25.45,70.67-25.45,71.6,0,117.86,55.75,117.86,142.03ZM934.99,448.13c-16.24,0-69.21,6.35-69.21,88.07,0,72.39,37.38,87.59,68.73,87.59,14.31,0,61-6.32,61-87.59,0-20.66-4.37-88.07-60.52-88.07ZM1292.36,483.82v191.51h-60.18v-22.8c-19.61,15-43.59,22.8-70.72,22.8-58.87,0-95.45-30.81-95.45-80.42,0-73.16,65.5-83.31,118.11-91.46l1.33-.22c39.82-5.99,49.83-9.59,49.83-25.24,0-27.73-22.7-33.55-52.95-33.55-35.25,0-50.78,13.51-52,45.12l-.39,10.18h-58.93l.33-10.9c1.77-58.68,44.09-95.15,110.51-95.15,85.3,0,110.5,49.03,110.5,90.13ZM1235.79,541.42c-15.58,6.07-33.58,9.96-44.76,11.98-43.21,8.01-62.15,14.25-62.15,40.54,0,14.92,4.91,30.14,41.32,30.14,47.78,0,65.59-34.86,65.59-56.82v-25.85ZM1493.66,399.82h60.24v246.92c0,68.14-43.84,107.22-120.27,107.22-4.18,0-8.37-.11-12.55-.33-38.84-2.1-80.34-15.47-97.39-53.64-2.96-6.62-5.32-13.61-6.11-20.82-1.32-12.04-1.31-18.87-1.48-18.87h57.08c.37,0-.28,5.16,1.34,14.23.94,5.25,3.77,10.1,7.53,13.89,12.39,12.51,34.14,13.51,50.61,13.51,41.62,0,61-17.08,61-53.75v-9.16c-14.97,13.34-34.62,23.09-64.38,23.09-70.53,0-119.79-55.22-119.79-134.29s48.26-133.81,117.37-133.81c26.92,0,48.97,7.32,66.8,22.27v-16.46ZM1430.74,447.98c-18.05,0-60.03,7.83-60.03,80.34s42.32,79.85,60.51,79.85c44.59,0,65.35-26.14,65.35-82.27,0-52.43-21.53-77.92-65.84-77.92ZM1825.62,544.75v10.54h-192.3c5.9,43.03,31.18,68.35,69.13,68.35,31.7,0,51.52-14.58,58.92-43.32l2.03-7.92h59.43l-2.76,12.77c-12.69,58.74-55.56,92.43-117.62,92.43-77.36,0-131.39-58.4-131.39-142.03s55.44-142.02,128.97-142.02c77.47,0,125.59,57.94,125.59,151.21ZM1761.48,504.72c-3.53-25.91-16.78-59.16-61.45-59.16s-59.4,35.28-64.79,59.16h126.24ZM714.54,0v717.3h-358.65l-14.76-.37C150.2,709.15-2.76,551.46-2.76,358.65S150.2,8.15,341.13.37v-.37h373.41ZM341.13,687.41V29.89C166.47,37.65,26.76,182.12,26.76,358.65s139.72,321,314.38,328.76ZM455.56,687.78V29.52h-84.91v658.26h84.91ZM570.59,687.78V29.52h-85.5v658.26h85.5ZM685.02,29.52h-84.92v658.26h84.92V29.52Z"/></svg>